<svg xmlns="http://www.w3.org/2000/svg" xmlns:xlink="http://www.w3.org/1999/xlink" version="1.1" id="Capa_1" x="0px"
     y="0px" width="568.805px" height="568.806px" viewBox="0 0 568.805 568.806"
     xml:space="preserve">
     <path d="M387.463,0H181.353c-21.63,0-39.149,17.519-39.149,39.139v490.528c0,21.62,17.519,39.139,39.149,39.139h206.121
     c21.611,0,39.129-17.519,39.129-39.139V39.139C426.592,17.519,409.075,0,387.463,0z M264.833,42.821h39.149
     c2.639,0,4.781,2.142,4.781,4.781s-2.143,4.781-4.781,4.781h-39.149c-2.64,0-4.781-2.142-4.781-4.781
     C260.052,44.953,262.194,42.821,264.833,42.821z M245.918,41.071c3.605,0,6.531,2.926,6.531,6.531
     c0,3.615-2.936,6.541-6.531,6.541c-3.605,0-6.521-2.926-6.521-6.541C239.397,43.997,242.313,41.071,245.918,41.071z
     M221.41,521.711c0,1.319-1.071,2.391-2.391,2.391h-20.378c-1.319,0-2.391-1.071-2.391-2.391v-19.852
     c0-1.32,1.071-2.391,2.391-2.391h20.378c1.319,0,2.391,1.07,2.391,2.391V521.711z M290.614,511.785v11.704h-6.923v-7.984h-5.297
     v7.984h-5.69v-12.059h-3.892l12.039-11.341l14.373,11.695H290.614z M369.276,523.862h-9.984c-1.32,0-2.391-1.071-2.391-2.391
     s1.07-2.391,2.391-2.391h9.984c6.311,0,7.553-0.345,7.553-4.36c0-3.787-2.945-4.36-13.043-4.36h-5.746v3.538l-10.318-5.967
     l10.318-5.958v3.605h5.746c8.77,0,17.824,0,17.824,9.142S374.477,523.862,369.276,523.862z M400.526,467.042H164.15V75.649
     h236.376V467.042L400.526,467.042z" fill="#eee8d5"/>
    <polygon points="208.051,511.259 201.032,511.259 201.032,519.32 216.629,519.32 216.629,504.25 208.051,504.25"
             fill="#eee8d5"/>
</svg>